<?xml version="1.0"?>
<svg xmlns="http://www.w3.org/2000/svg" width="512" height="512" viewBox="0 0 512 512"><g><path d="M256,152c-79.4,0-144,64.6-144,144s64.6,144,144,144,144-64.6,144-144S335.4,152,256,152Zm0,272A128,128,0,1,1,384,296,128.144,128.144,0,0,1,256,424Z"/><path d="M456,88H408V16a8.008,8.008,0,0,0-9.81-7.79l-344,80A7.991,7.991,0,0,0,48,96V496a8,8,0,0,0,8,8H456a8,8,0,0,0,8-8V96A8,8,0,0,0,456,88ZM392,26.07V88H125.72ZM448,488H64V104H448Z"/><path d="M333.17,209.9a8.019,8.019,0,0,0-6.49-1.79l-96,16A8,8,0,0,0,224,232v92.31A31.705,31.705,0,0,0,208,320a32,32,0,1,0,32,32V270.78l80-13.34v50.87A31.705,31.705,0,0,0,304,304a32,32,0,1,0,32,32V216A8.009,8.009,0,0,0,333.17,209.9ZM208,368a16,16,0,1,1,16-16A16.021,16.021,0,0,1,208,368Zm96-16a16,16,0,1,1,16-16A16.021,16.021,0,0,1,304,352Zm16-110.78-80,13.34V238.78l80-13.34Z"/><path d="M152,168V128a8,8,0,0,0-8-8H88a8,8,0,0,0-8,8v40a8,8,0,0,0,8,8h56A8,8,0,0,0,152,168Zm-16-8H96V136h40Z"/><path d="M368,432a8,8,0,0,0,0,16h56a8,8,0,0,0,0-16Z"/><path d="M424,456H400a8,8,0,0,0,0,16h24a8,8,0,0,0,0-16Z"/></g></svg>
