<?xml version="1.0" encoding="iso-8859-1"?>
<!-- Generator: Adobe Illustrator 19.0.0, SVG Export Plug-In . SVG Version: 6.00 Build 0)  -->
<svg version="1.1" id="Capa_1" xmlns="http://www.w3.org/2000/svg" xmlns:xlink="http://www.w3.org/1999/xlink" x="0px" y="0px"
	 viewBox="0 0 368 368" style="enable-background:new 0 0 368 368;" xml:space="preserve">
<g>
	<g>
		<path d="M343.68,92.76c-0.088-0.2-0.088-0.416-0.192-0.608c-0.616-1.064-1.312-2.072-1.952-3.128
			c-0.272-0.448-0.56-0.896-0.84-1.344c-4.176-6.768-8.776-13.232-13.768-19.384c-0.624-0.776-1.256-1.544-1.896-2.312
			c-1.504-1.8-3.032-3.576-4.608-5.312c-0.536-0.592-1.096-1.16-1.64-1.744c-3.12-3.352-6.352-6.592-9.704-9.704
			c-0.592-0.544-1.168-1.112-1.76-1.648c-1.728-1.568-3.496-3.08-5.288-4.584c-0.784-0.656-1.576-1.304-2.368-1.944
			c-6.112-4.96-12.544-9.528-19.272-13.688c-0.488-0.304-0.968-0.608-1.456-0.904c-1.04-0.632-2.04-1.32-3.096-1.928
			c-0.184-0.104-0.408-0.104-0.6-0.2C248.336,8.88,217.192,0,184,0C82.536,0,0,82.544,0,184c0,33.192,8.88,64.328,24.312,91.24
			c0.096,0.192,0.088,0.424,0.2,0.608c0.624,1.072,1.32,2.088,1.96,3.144c0.256,0.432,0.536,0.848,0.792,1.272
			c4.176,6.768,8.768,13.232,13.76,19.384c0.648,0.8,1.304,1.608,1.968,2.4c1.488,1.776,2.992,3.536,4.544,5.248
			c0.576,0.64,1.184,1.256,1.768,1.888c3.056,3.28,6.216,6.448,9.496,9.496c0.632,0.584,1.248,1.192,1.888,1.768
			c1.72,1.552,3.472,3.056,5.248,4.544c0.792,0.664,1.592,1.32,2.4,1.968c6.152,4.992,12.624,9.584,19.384,13.76
			c0.424,0.264,0.848,0.536,1.272,0.792c1.056,0.64,2.072,1.344,3.144,1.96c0.296,0.176,0.624,0.256,0.944,0.392
			C119.928,359.192,150.944,368,184,368c101.464,0,184-82.536,184-184C368,150.808,359.12,119.672,343.68,92.76z M275.304,43.176
			c0.616,0.4,1.272,0.736,1.88,1.144c1.656,1.112,3.216,2.352,4.824,3.512c2.928,2.112,5.88,4.192,8.664,6.48
			c0.968,0.8,1.84,1.696,2.792,2.512c6.32,5.448,12.224,11.352,17.68,17.672c0.832,0.968,1.744,1.856,2.56,2.84
			c2.288,2.784,4.368,5.736,6.48,8.664c1.168,1.616,2.408,3.168,3.512,4.824c0.408,0.608,0.744,1.264,1.144,1.88l-74.296,33.752
			c-0.368-0.416-0.808-0.752-1.168-1.16c-2.096-2.328-4.304-4.544-6.64-6.64c-0.416-0.376-0.76-0.824-1.184-1.184L275.304,43.176z
			 M256,184c0,39.704-32.296,72-72,72c-16.328,0-31.352-5.528-43.448-14.72c-2.568-1.92-5.008-3.984-7.264-6.232
			c-0.112-0.112-0.224-0.224-0.336-0.336c-2.248-2.264-4.312-4.704-6.232-7.264C117.528,215.352,112,200.328,112,184
			c0-39.696,32.296-72,72-72c16.336,0,31.368,5.528,43.464,14.736c2.584,1.936,5.048,4.016,7.32,6.28
			c0.072,0.072,0.144,0.144,0.216,0.224c2.272,2.288,4.36,4.744,6.288,7.336C250.48,152.664,256,167.68,256,184z M35.056,261.416
			C22.952,238.224,16,211.92,16,184C16,91.36,91.368,16,184,16c27.928,0,54.224,6.952,77.416,19.056l-33.168,73
			C215.232,100.44,200.144,96,184,96c-48.52,0-88,39.48-88,88c0,16.144,4.44,31.232,12.056,44.248L35.056,261.416z M92.704,324.824
			c-0.616-0.4-1.28-0.736-1.888-1.152c-1.624-1.088-3.144-2.296-4.72-3.44c-2.968-2.136-5.96-4.248-8.776-6.568
			c-0.816-0.672-1.544-1.432-2.344-2.112c-6.648-5.688-12.84-11.88-18.528-18.528c-0.688-0.8-1.44-1.536-2.112-2.344
			c-2.32-2.816-4.432-5.808-6.568-8.776c-1.144-1.584-2.352-3.104-3.44-4.72c-0.408-0.608-0.744-1.272-1.152-1.888l74.296-33.752
			c0.368,0.424,0.816,0.776,1.192,1.192c2.08,2.312,4.28,4.512,6.6,6.6c0.416,0.376,0.76,0.832,1.192,1.192L92.704,324.824z
			 M184,352c-27.92,0-54.224-6.952-77.416-19.056l33.168-73C152.768,267.56,167.856,272,184,272c48.52,0,88-39.48,88-88
			c0-16.136-4.44-31.224-12.056-44.248l73.008-33.168C345.056,129.784,352,156.08,352,184C352,276.632,276.632,352,184,352z"/>
	</g>
</g>
<g>
	<g>
		<path d="M184,144c-22.056,0-40,17.944-40,40c0,22.056,17.944,40,40,40c22.056,0,40-17.944,40-40C224,161.944,206.056,144,184,144z
			 M184,208c-13.232,0-24-10.768-24-24s10.768-24,24-24s24,10.768,24,24S197.232,208,184,208z"/>
	</g>
</g>
<g>
</g>
<g>
</g>
<g>
</g>
<g>
</g>
<g>
</g>
<g>
</g>
<g>
</g>
<g>
</g>
<g>
</g>
<g>
</g>
<g>
</g>
<g>
</g>
<g>
</g>
<g>
</g>
<g>
</g>
</svg>
